<?xml version="1.0" encoding="utf-8"?>
<!DOCTYPE svg PUBLIC "-//W3C//DTD SVG 1.1//EN" "http://www.w3.org/Graphics/SVG/1.1/DTD/svg11.dtd">
<svg version="1.1" xmlns="http://www.w3.org/2000/svg" xmlns:xlink="http://www.w3.org/1999/xlink" x="0px" y="0px" viewBox="0 0 1000 1000" enable-background="new 0 0 1000 1000" xml:space="preserve">
<g fill="#666"><g transform="translate(0.000000,240.000000) scale(0.100000,-0.100000)"><path d="M1089.4,423.7C896.6,372.2,757.7,274.5,487.6-5.8C148.2-355.5,101.9-448.1,101.9-787.6c0-450-146.6-275.2,2142.2-2569.1C3342.2-4457.4,4309.2-5406.3,4388.9-5468c195.4-146.6,411.5-205.7,686.7-185.2c406.3,25.7,254.6-102.9,2607.7,2250.2C9413.9-1669.7,9792-1278.8,9840.8-1173.3c46.3,102.9,56.6,174.9,59.2,372.9c0,226.3-7.7,259.7-82.3,414c-118.3,241.7-578.6,684.1-794.6,771.5c-210.9,82.3-504.1,82.3-717.5,0c-146.6-56.6-241.7-146.6-1730.7-1633L5000.9-2819.2L3450.2-1273.6C2599-422.4,1860.9,295.1,1809.5,325.9c-113.2,69.4-362.6,133.7-498.9,131.2C1254,457.1,1153.7,441.7,1089.4,423.7z"/></g></g>
</svg>