<?xml version="1.0" encoding="utf-8"?>
<!DOCTYPE svg PUBLIC "-//W3C//DTD SVG 1.1//EN" "http://www.w3.org/Graphics/SVG/1.1/DTD/svg11.dtd">
<svg version="1.1" xmlns="http://www.w3.org/2000/svg" xmlns:xlink="http://www.w3.org/1999/xlink" x="0px" y="0px" viewBox="0 0 1000 1000" enable-background="new 0 0 1000 1000" xml:space="preserve">
<g fill="#aaa"><path d="M966.3,851.5L614.9,500.1l350.3-349.8c31.6-31.6,31.6-82.9,0-114.5c-31.6-31.6-82.9-31.6-114.5,0L500.4,385.6L148.7,33.9c-31.6-31.6-82.9-31.6-114.5,0c-31.6,31.6-31.6,82.9,0,114.5L385.8,500L33.7,851.6c-31.6,31.6-31.6,82.9,0,114.5c31.6,31.6,82.9,31.6,114.5,0l352.1-351.6L851.8,966c31.6,31.6,82.9,31.6,114.5,0C997.9,934.4,997.9,883.1,966.3,851.5z"/></g>
</svg>