<?xml version="1.0" encoding="utf-8"?>
<!DOCTYPE svg PUBLIC "-//W3C//DTD SVG 1.1//EN" "http://www.w3.org/Graphics/SVG/1.1/DTD/svg11.dtd">
<svg version="1.1" xmlns="http://www.w3.org/2000/svg" xmlns:xlink="http://www.w3.org/1999/xlink" x="0px" y="0px" viewBox="0 0 1000 1000" enable-background="new 0 0 1000 1000" xml:space="preserve">
<g fill="#000"><path d="M499.7,990C441.8,990,395,943.1,395,885.3c0-57.8,46.9-104.7,104.7-104.7c57.8,0,104.7,46.8,104.7,104.7C604.5,943.1,557.6,990,499.7,990L499.7,990z"/><path d="M395,497.8c0,57.8,46.9,104.7,104.7,104.7c57.8,0,104.7-46.9,104.7-104.7c0-57.8-46.9-104.7-104.7-104.7C441.9,393.1,395,440,395,497.8L395,497.8z"/><path d="M395.6,114.7c0,57.8,46.9,104.7,104.7,104.7S605,172.5,605,114.7C605,56.9,558.1,10,500.3,10S395.6,56.9,395.6,114.7z"/></g>
</svg>